<svg id="Livello_1" data-name="Livello 1" xmlns="http://www.w3.org/2000/svg" width="155" height="46.6" viewBox="0 0 155 46.6">
  <title>logo</title>
  <rect x="0.1" y="28.7" width="51.9" height="1.27" fill="#08547a"/>
  <rect x="60.1" y="28.7" width="94.9" height="1.31" fill="#08547a"/>
  <path d="M2.1,4H0V.4H9.1C16,.4,20.5,4.7,20.5,12.1S16,23.9,9.1,23.9H4.2c-1.5,0-2.1-.6-2.1-2.2ZM6.9,20.3h2c4.5,0,7.4-2.9,7.4-8.2S13.3,4,8.9,4H6.2V19.5C6.2,20,6.4,20.3,6.9,20.3Z" fill="#08547a"/>
  <path d="M63.4,6.6A5.9,5.9,0,0,0,58,9.3h0V8.6c0-.9-.6-1.6-2.2-1.6H52.1v3.6h1.3c.5,0,.8.2.8.7V30.4h4.1V22h0a5.9,5.9,0,0,0,4.8,2.2c4.5,0,7.8-3.4,7.8-8.8S67.9,6.6,63.4,6.6Zm-1,14.1c-2.8,0-4.2-2.6-4.2-5.2s2.1-5.3,4.2-5.3,4.2,2.1,4.2,5.3S64.7,20.7,62.4,20.7Z" fill="#08547a"/>
  <path d="M85.6,19.6V13.3c0-3.8-1.7-6.7-7.3-6.7-1.7,0-6.1.3-6.1,3.5v1.8h3.9V11c0-1,1.4-1.2,2.2-1.2s3.1.9,3.1,3.3v.2h-.5c-2.8,0-10,.4-10,5.7,0,3.4,2.7,5.2,5.7,5.2a5.5,5.5,0,0,0,5.1-2.9h.1a2.4,2.4,0,0,0-.1.7c0,1,.6,1.8,2.2,1.8h3.7V20.3H86.3A.7.7,0,0,1,85.6,19.6Zm-4.1-3.1c0,2.1-1.6,4.5-3.9,4.5a2.2,2.2,0,0,1-2.5-2.2c0-2.4,3.5-2.7,5.6-2.7h.8Z" fill="#08547a"/>
  <path d="M93.1,19.6V2.6A1.9,1.9,0,0,0,90.9.4h-4V4h1.3c.5,0,.7.2.7.7V21.6c0,1.6.7,2.2,2.3,2.2h3.9V20.3H93.9A.7.7,0,0,1,93.1,19.6Z" fill="#08547a"/>
  <path d="M107,20.2c-4.2,0-7.6-3.7-7.6-8.3S102.7,4,106.9,4c2,0,4.9.8,4.9,2.5V7.9h3.9V5.3c0-4-5.9-5.3-8.9-5.3A11.7,11.7,0,0,0,94.9,11.9c0,7,4.9,12.3,12.1,12.3a13,13,0,0,0,9.4-4l-2.3-3.1A9.8,9.8,0,0,1,107,20.2Z" fill="#e22b4b"/>
  <path d="M125.6,6.6c-5.1,0-9.2,3.7-9.2,8.8s4.1,8.8,9.2,8.8,9.3-3.6,9.3-8.8S130.8,6.6,125.6,6.6Zm0,14.1a5,5,0,0,1-5-5.3,5,5,0,0,1,5-5.2,4.9,4.9,0,0,1,5,5.2A5,5,0,0,1,125.6,20.7Z" fill="#e22b4b"/>
  <path d="M153.3,20.3a.7.7,0,0,1-.8-.7V13c0-4.4-2.1-6.4-5.8-6.4a6.6,6.6,0,0,0-6,3.5h-.1a3.5,3.5,0,0,0,.1-.7V8.9c0-1.2-.7-1.9-2.2-1.9h-3.9v3.6H136a.6.6,0,0,1,.7.7V23.8h4.1V16.1a5.4,5.4,0,0,1,.4-2.2,4.7,4.7,0,0,1,4.5-3.5c2.1,0,2.6,1.4,2.6,3.5v7.7c0,1.6.7,2.2,2.3,2.2h4V20.3Z" fill="#e22b4b"/>
  <path d="M51.4,20.3a.7.7,0,0,1-.7-.7V7H46.5v7.7c0,3-1.7,5.7-4.7,5.7S39.2,19,39.2,17V9.2c0-1.3-.5-2-1.7-2.2H32.1a6.4,6.4,0,0,0-3.8,2.1,7.5,7.5,0,0,0-1,2h-.1a5,5,0,0,0,.1-1.1V9c0-1.4-.8-2-2.3-2H21.2V8.2a8.6,8.6,0,0,1,.4,2.4h.9c.5,0,.8.2.8.7V23.8h4.1V17.2a8.6,8.6,0,0,1,.4-2.8,4.3,4.3,0,0,1,.5-1.2h0a5.6,5.6,0,0,1,5.1-2.6h.9a.6.6,0,0,1,.7.7v6.5c0,4.6,2.2,6.4,5.8,6.4a6.3,6.3,0,0,0,5.8-3.5h.1V22c0,1.2.7,1.8,2.2,1.8h3.8V20.3Z" fill="#08547a"/>
  <g>
    <g>
      <path d="M10.3,34.5h1.2v12H10.2L2.8,36.3V46.5H1.6v-12H2.9l7.4,10.1Z" fill="#424242"/>
      <path d="M24.2,46.5l-1.4-3.2H16.2l-1.4,3.2H13.5l5.4-12h1.2l5.4,12Zm-7.6-4.3h5.7l-2.8-6.5Z" fill="#424242"/>
      <path d="M32.5,35.7l-1.6-.2a3.1,3.1,0,0,0-2,.5,1.4,1.4,0,0,0-.7,1.3,1.6,1.6,0,0,0,.4,1.2,2.6,2.6,0,0,0,1,.7l1.6.6,2,.7a4,4,0,0,1,1.2,1,2.8,2.8,0,0,1,.6,1.8,2.7,2.7,0,0,1-.6,1.7,2.5,2.5,0,0,1-1.5,1.1,5.1,5.1,0,0,1-2.2.4,6.9,6.9,0,0,1-2.5-.4,7.2,7.2,0,0,1-2-1.4l.5-.9A7.6,7.6,0,0,0,28.6,45a5.2,5.2,0,0,0,2.1.4,4.8,4.8,0,0,0,2.2-.5,1.9,1.9,0,0,0,.8-1.5,2.8,2.8,0,0,0-.4-1.3,4.1,4.1,0,0,0-1.1-.7l-1.6-.6-2-.7a2.9,2.9,0,0,1-1.2-1,2.3,2.3,0,0,1-.5-1.7,2.2,2.2,0,0,1,.5-1.6,3.1,3.1,0,0,1,1.4-1.1,6.6,6.6,0,0,1,2.1-.3,6.4,6.4,0,0,1,2,.3l1.7.7-.5,1Z" fill="#424242"/>
      <path d="M37.9,34.5h1.2V40h7.5V34.5h1.2v12H46.6V41H39.1v5.5H37.9Z" fill="#424242"/>
      <path d="M49.8,34.5H51l4.3,10.7,4.2-10.7h1.3l-4.9,12H54.6Z" fill="#424242"/>
      <path d="M62.8,34.5H64v12H62.8Z" fill="#424242"/>
      <path d="M67.8,34.5h1.1V45.4h5.3v1.1H67.8Z" fill="#424242"/>
      <path d="M76.5,34.5h1.2V45.4H83v1.1H76.5Z" fill="#424242"/>
      <path d="M85.3,34.5h8.1v1H86.5v4.3h6.1v1.1H86.5v4.5h7.1v1.1H85.3Z" fill="#424242"/>
    </g>
    <g>
      <path d="M106,43.9v2.6H96.8V44.4l4.4-4.5a7.6,7.6,0,0,0,.8-1.1,1.6,1.6,0,0,0,.3-.9.8.8,0,0,0-.3-.7,1.7,1.7,0,0,0-1-.3,3.2,3.2,0,0,0-1.6.4,6.2,6.2,0,0,0-1.7,1.1l-1.2-2.3a8.2,8.2,0,0,1,4.9-1.8,5.1,5.1,0,0,1,2.2.4,4.2,4.2,0,0,1,1.5,1.1,3.1,3.1,0,0,1,.5,1.7,3.8,3.8,0,0,1-.6,1.9,22.5,22.5,0,0,1-1.7,2.1l-2.5,2.4Z" fill="#424242"/>
      <path d="M116.5,35.9a6.9,6.9,0,0,1,1.4,4.5,7,7,0,0,1-1.4,4.6,5,5,0,0,1-3.9,1.6,5.3,5.3,0,0,1-4-1.6,7,7,0,0,1-1.4-4.6,6.9,6.9,0,0,1,1.4-4.5,5.3,5.3,0,0,1,4-1.6A5,5,0,0,1,116.5,35.9ZM111,37.6a5,5,0,0,0-.5,2.8,5.8,5.8,0,0,0,.5,3,1.7,1.7,0,0,0,1.6.8,1.8,1.8,0,0,0,1.6-.9,6.2,6.2,0,0,0,.5-2.9,6,6,0,0,0-.5-2.8,1.8,1.8,0,0,0-1.6-.9A1.6,1.6,0,0,0,111,37.6Z" fill="#424242"/>
      <path d="M118.3,34.5h5.5v12h-3.2V37h-2.3Z" fill="#424242"/>
      <path d="M133.8,35.2a3,3,0,0,1,1.1,2.4,2.5,2.5,0,0,1-.4,1.4,2.4,2.4,0,0,1-1,1,3.7,3.7,0,0,1,1.5,1.3,3.5,3.5,0,0,1,.5,1.8,2.8,2.8,0,0,1-.6,1.8,3.3,3.3,0,0,1-1.7,1.3,6.2,6.2,0,0,1-2.5.4,7.1,7.1,0,0,1-2.6-.4,4,4,0,0,1-1.6-1.2,3.3,3.3,0,0,1-.6-1.9,3.2,3.2,0,0,1,.6-1.8,3.4,3.4,0,0,1,1.6-1.3,2.5,2.5,0,0,1-1.2-1.1,2.3,2.3,0,0,1-.4-1.4,2.5,2.5,0,0,1,.5-1.7,3,3,0,0,1,1.5-1.1,4.8,4.8,0,0,1,2.2-.4A5,5,0,0,1,133.8,35.2Zm-4.5,6.5a1.4,1.4,0,0,0-.5,1.1,1.3,1.3,0,0,0,.5,1.1,2.7,2.7,0,0,0,2.8,0,1.3,1.3,0,0,0,.5-1.1,1.4,1.4,0,0,0-.5-1.1,2.7,2.7,0,0,0-2.8,0Zm.2-4.9a1,1,0,0,0-.4.9,1.1,1.1,0,0,0,.4,1,2.5,2.5,0,0,0,2.4,0,1.1,1.1,0,0,0,.4-1,1,1,0,0,0-.4-.9,2,2,0,0,0-2.4,0Z" fill="#424242"/>
    </g>
  </g>
</svg>
